<?xml version="1.0" encoding="UTF-8" standalone="no"?>
<svg
   xmlns:dc="http://purl.org/dc/elements/1.1/"
   xmlns:cc="http://creativecommons.org/ns#"
   xmlns:rdf="http://www.w3.org/1999/02/22-rdf-syntax-ns#"
   xmlns:svg="http://www.w3.org/2000/svg"
   xmlns="http://www.w3.org/2000/svg"
   viewBox="0 0 1333.3333 457.33334"
   height="457.33334"
   width="1333.3333"
   xml:space="preserve"
   id="svg4518"
   version="1.1"><metadata
     id="metadata4524"><rdf:RDF><cc:Work
         rdf:about=""><dc:format>image/svg+xml</dc:format><dc:type
           rdf:resource="http://purl.org/dc/dcmitype/StillImage" /><dc:title></dc:title></cc:Work></rdf:RDF></metadata><defs
     id="defs4522"><clipPath
       id="clipPath4536"
       clipPathUnits="userSpaceOnUse"><path
         id="path4534"
         d="M 0,343 H 1000 V 0 H 0 Z" /></clipPath><clipPath
       id="clipPath4578"
       clipPathUnits="userSpaceOnUse"><path
         id="path4576"
         d="m 126.3,248.6 h 49.9 v -96.4 h -49.9 z" /></clipPath><clipPath
       id="clipPath4594"
       clipPathUnits="userSpaceOnUse"><path
         id="path4592"
         d="M 0,343 H 1000 V 0 H 0 Z" /></clipPath></defs><g
     transform="matrix(1.3333333,0,0,-1.3333333,0,457.33333)"
     id="g4526"><path
       id="path4528"
       style="fill:#fe3917;fill-opacity:1;fill-rule:nonzero;stroke:none"
       d="m 264.5,113.9 h -37.1 v 121.3 h 37.1 z" /><g
       id="g4530"><g
         clip-path="url(#clipPath4536)"
         id="g4532"><g
           transform="translate(318.2002,158.5003)"
           id="g4538"><path
             id="path4540"
             style="fill:#fe3917;fill-opacity:1;fill-rule:nonzero;stroke:none"
             d="m 0,0 c 4.9,-4.9 11.1,-7.3 18.8,-7.3 7.6,0 13.9,2.4 18.7,7.3 4.8,4.899 7.2,11.399 7.2,19.5 0,8 -2.5,14.4 -7.6,19.4 -5,5 -11.1,7.4 -18.3,7.4 C 11.6,46.3 5.5,43.8 0.4,38.9 -4.7,33.9 -7.3,27.5 -7.3,19.5 -7.3,11.399 -4.9,4.899 0,0 m -44.4,-51.5 32.7,9.3 c 1.3,-6 4.3,-10.901 8.9,-14.6 4.6,-3.7 10.4,-5.6 17.2,-5.6 20,0 30,10.299 30,31 v 5.6 c -6,-9.1 -16.8,-13.7 -32.5,-13.7 -16.1,0 -29.5,5.6 -40.3,16.8 -10.7,11.2 -16.1,25.3 -16.1,42.2 0,16.3 5.3,30.2 16,41.9 10.7,11.6 24.1,17.4 40.4,17.4 8.9,0 16.3,-1.5 22,-4.6 5.7,-3.1 9.6,-6.6 11.7,-10.5 V 76.6 H 81 V -29.5 C 81,-48.4 75.5,-63.9 64.7,-76.2 53.8,-88.5 37.6,-94.601 16.1,-94.601 c -16.6,0 -30.4,4.301 -41.4,12.801 -10.9,8.5 -17.3,18.6 -19.1,30.3" /></g><path
           id="path4542"
           style="fill:#fe3917;fill-opacity:1;fill-rule:nonzero;stroke:none"
           d="M 448,113.9 H 410.9 V 235.2 H 448 Z" /><g
           transform="translate(498.5,145.3997)"
           id="g4544"><path
             id="path4546"
             style="fill:#fe3917;fill-opacity:1;fill-rule:nonzero;stroke:none"
             d="m 0,0 h 24.2 c 7.5,0 13.3,1.801 17.6,5.5 4.2,3.7 6.3,8.601 6.3,14.801 C 48.1,26.3 46,31.2 41.8,34.9 37.6,38.601 31.7,40.5 24.2,40.5 H 0 Z m 0,72.2 h 21 c 6.8,0 12.2,1.7 16.2,5 4,3.3 6,7.901 6,13.8 0,5.7 -2,10.2 -5.9,13.5 -3.9,3.3 -9.5,5 -16.8,5 H 0 Z m -37.5,69.3 h 64.7 c 16.8,0 29.9,-4.3 39.5,-12.899 C 76.3,120 81.1,108.8 81.1,95.2 81.1,86.601 78.7,78.9 73.9,72 69.1,65.2 63,60.5 55.7,58.101 c 8.5,-2 15.7,-6.601 21.7,-13.801 6,-7.199 9,-16.1 9,-26.699 0,-14.3 -5,-26.101 -15,-35.3 -10,-9.2 -23.1,-13.801 -39.2,-13.801 h -69.7 z" /></g><g
           transform="translate(641.5,137.3001)"
           id="g4548"><path
             id="path4550"
             style="fill:#fe3917;fill-opacity:1;fill-rule:nonzero;stroke:none"
             d="m 0,0 c 6.3,0 11.6,1.9 15.9,5.6 4.2,3.7 6.3,9.9 6.3,18.5 v 5.4 L -0.7,25.8 C -9.8,24.3 -14.4,19.9 -14.4,12.4 -14.4,9 -13.2,6.1 -10.9,3.6 -8.5,1.2 -4.8,0 0,0 m -51,10 c 0,10.2 3.3,18.5 10,24.8 6.7,6.3 15.3,10.2 25.9,11.8 L 13.5,51 c 5.9,0.8 8.8,3.6 8.8,8.3 0,3.7 -1.6,6.9 -4.8,9.4 -3.2,2.5 -7.5,3.8 -13.1,3.8 -6.2,0 -11.1,-1.7 -14.8,-5.2 -3.7,-3.5 -5.7,-7.7 -6,-12.6 l -32.2,6.6 c 0.8,10.1 5.8,19.3 15,27.7 9.2,8.4 21.9,12.6 38.2,12.6 18.4,0 31.9,-4.4 40.6,-13.2 8.7,-8.8 13.1,-20 13.1,-33.7 V -4.6 c 0,-7.7 0.5,-13.9 1.5,-18.8 H 26.4 c -0.8,3.3 -1.2,7.8 -1.2,13.7 -7,-11.4 -18.4,-17.1 -34.2,-17.1 -12.9,0 -23.1,3.6 -30.6,10.9 C -47.2,-8.7 -51,-0.1 -51,10" /></g><g
           transform="translate(706.4004,148.3001)"
           id="g4552"><path
             id="path4554"
             style="fill:#fe3917;fill-opacity:1;fill-rule:nonzero;stroke:none"
             d="M 0,0 31.5,5.6 C 31.8,1 33.6,-2.8 36.699,-6 c 3.2,-3.2 7.801,-4.8 13.801,-4.8 4.6,0 8.1,1 10.5,3.1 2.399,2 3.699,4.5 3.699,7.4 0,4.9 -4,8.2 -12,10 L 38.8,12.9 C 26.399,15.5 17.3,20.1 11.5,26.7 5.6,33.3 2.699,41.1 2.699,50.3 2.699,61.5 7.1,71 16,78.9 24.899,86.7 36,90.6 49.3,90.6 65.1,90.6 76.899,86.8 84.8,79.3 92.699,71.7 97,63.5 97.899,54.5 L 67.1,48.9 c -0.5,4.4 -2.201,8 -5,10.7 -2.8,2.8 -7,4.1 -12.3,4.1 -3.601,0 -6.7,-1 -9.3,-2.9 -2.601,-2 -3.9,-4.5 -3.9,-7.6 0,-4.9 3.2,-7.9 9.5,-9 L 62.199,41 C 74.399,38.6 83.699,33.9 90,27.1 96.3,20.3 99.5,12.2 99.5,2.9 99.5,-8.3 95.3,-18 86.8,-26 78.3,-34.1 66.5,-38.1 51.199,-38.1 c -8.899,0 -16.899,1.3 -23.8,3.9 -6.899,2.6 -12.2,6 -15.899,10.1 C 7.8,-20 5.1,-15.8 3.199,-11.8 1.5,-7.7 0.399,-3.8 0,0" /></g><g
           transform="translate(848.2002,189.0003)"
           id="g4556"><path
             id="path4558"
             style="fill:#fe3917;fill-opacity:1;fill-rule:nonzero;stroke:none"
             d="m 0,0 h 48.6 c -0.3,5.5 -2.5,10.3 -6.5,14.4 -4,4.1 -10,6.1 -17.9,6.1 C 17,20.5 11.3,18.4 7.1,14.2 2.899,10 0.5,5.2 0,0 m 51.3,-31.4 31,-8.8 C 79.2,-51.4 72.8,-60.7 63,-67.9 53.2,-75.101 41,-78.8 26.399,-78.8 c -17.599,0 -32.5,5.9 -44.799,17.6 -12.3,11.7 -18.4,27.4 -18.4,47.1 0,18.9 6,34.2 17.9,46.1 12,11.9 26.2,17.8 42.6,17.8 18.9,0 33.699,-5.5 44.5,-16.5 10.8,-11 16.199,-26.2 16.199,-45.8 0,-6.2 -0.199,-10 -0.699,-11.5 H -0.7 c 0.3,-6.7 3.2,-12.2 8.5,-16.7 5.4,-4.5 11.7,-6.7 19,-6.7 12.599,0.1 20.7,5.4 24.5,16" /></g><g
           transform="translate(230.6001,249.8001)"
           id="g4560"><path
             id="path4562"
             style="fill:#fe3917;fill-opacity:1;fill-rule:nonzero;stroke:none"
             d="m 0,0 c -4.2,4.2 -6.3,9.4 -6.3,15.4 0,6 2.1,11.1 6.3,15.4 4.2,4.2 9.3,6.3 15.1,6.3 6,0 11.2,-2.1 15.5,-6.3 4.3,-4.2 6.5,-9.4 6.5,-15.4 C 37.1,9.4 34.9,4.3 30.6,0 26.3,-4.2 21.1,-6.3 15.1,-6.3 9.3,-6.3 4.2,-4.2 0,0" /></g><g
           transform="translate(414.1001,249.8001)"
           id="g4564"><path
             id="path4566"
             style="fill:#fe3917;fill-opacity:1;fill-rule:nonzero;stroke:none"
             d="m 0,0 c -4.2,4.2 -6.3,9.4 -6.3,15.4 0,6 2.1,11.1 6.3,15.4 4.2,4.2 9.3,6.3 15.1,6.3 6,0 11.2,-2.1 15.5,-6.3 4.3,-4.2 6.5,-9.4 6.5,-15.4 C 37.1,9.4 34.9,4.3 30.6,0 26.3,-4.2 21.1,-6.3 15.1,-6.3 9.3,-6.3 4.2,-4.2 0,0" /></g><g
           transform="translate(126.2998,152.2005)"
           id="g4568"><path
             id="path4570"
             style="fill:#fe3917;fill-opacity:1;fill-rule:nonzero;stroke:none"
             d="m 0,0 -37.3,36.1 61.4,60.299 25.9,-82 z M 66.8,111.3 C 50.9,126.899 29.9,134.7 3.7,134.7 H -59 V -38.301 H 3.5 c 26.4,0 47.5,7.801 63.3,23.301 15.9,15.5 23.8,36.6 23.8,63.1 0,26.5 -7.9,47.5 -23.8,63.2" /></g><g
           id="g4572"><g
             id="g4574" /><g
             id="g4586"><g
               style="opacity:0.30000299"
               id="g4584"
               clip-path="url(#clipPath4578)"><g
                 id="g4582"
                 transform="translate(150.3999,248.5999)"><path
                   id="path4580"
                   style="fill:#fe3917;fill-opacity:1;fill-rule:nonzero;stroke:none"
                   d="M 0,0 -24.1,-96.399 25.8,-82.1 Z" /></g></g></g></g></g></g><g
       id="g4588"><g
         clip-path="url(#clipPath4594)"
         id="g4590"><g
           transform="translate(711.6045,76.2415)"
           id="g4596"><path
             id="path4598"
             style="fill:#000000;fill-opacity:1;fill-rule:nonzero;stroke:none"
             d="m 0,0 c 0,0.724 -0.176,1.301 -0.526,1.73 -0.352,0.43 -0.843,0.645 -1.477,0.645 -0.928,0 -1.68,-0.373 -2.257,-1.12 -0.576,-0.746 -0.865,-1.674 -0.865,-2.782 0,-1.878 0.713,-2.818 2.138,-2.818 0.837,0 1.538,0.408 2.104,1.223 C -0.317,-2.308 -0.023,-1.268 0,0 M 3.292,-7.603 H 3.156 c -0.86,0 -1.556,0.193 -2.088,0.578 -0.531,0.384 -0.877,0.848 -1.035,1.391 -0.791,-1.357 -2.093,-2.036 -3.902,-2.036 -1.448,0 -2.664,0.548 -3.649,1.647 -0.983,1.096 -1.475,2.493 -1.475,4.19 0,2.172 0.655,3.976 1.968,5.413 1.312,1.437 2.873,2.154 4.683,2.154 0.634,0 1.244,-0.158 1.833,-0.474 C 0.079,4.943 0.497,4.501 0.746,3.937 L 1.018,5.294 H 4.514 L 2.748,-2.953 C 2.726,-3.043 2.715,-3.179 2.715,-3.36 c 0,-0.271 0.09,-0.503 0.271,-0.697 0.181,-0.192 0.408,-0.288 0.679,-0.288 0.837,0 1.578,0.504 2.223,1.511 0.645,1.007 0.967,2.291 0.967,3.852 0,2.331 -0.809,4.219 -2.426,5.668 -1.618,1.447 -3.695,2.171 -6.228,2.171 -2.805,0 -5.124,-0.922 -6.957,-2.766 -1.832,-1.844 -2.749,-4.237 -2.749,-7.177 0,-2.806 0.893,-5.114 2.682,-6.924 1.786,-1.809 4.207,-2.715 7.261,-2.715 2.24,0 4.198,0.588 5.872,1.765 l 1.731,-2.478 c -0.86,-0.768 -2.015,-1.391 -3.462,-1.866 -1.448,-0.474 -2.828,-0.713 -4.141,-0.713 -4.004,0 -7.291,1.183 -9.858,3.546 -2.568,2.365 -3.851,5.459 -3.851,9.284 0,3.89 1.299,7.097 3.901,9.621 2.602,2.522 5.781,3.783 9.537,3.783 3.529,0 6.448,-1.064 8.756,-3.19 C 9.23,6.9 10.385,4.242 10.385,1.052 10.385,-1.437 9.666,-3.491 8.229,-5.107 6.793,-6.726 5.146,-7.557 3.292,-7.603" /></g><g
           transform="translate(738.8203,70.9807)"
           id="g4600"><path
             id="path4602"
             style="fill:#000000;fill-opacity:1;fill-rule:nonzero;stroke:none"
             d="m 0,0 5.735,16.935 h 5.703 L 2.647,-7.127 h -5.532 l -8.823,24.062 h 5.904 z" /></g><g
           transform="translate(755.8916,68.096)"
           id="g4604"><path
             id="path4606"
             style="fill:#000000;fill-opacity:1;fill-rule:nonzero;stroke:none"
             d="M 0,0 C 1.063,0 1.962,0.362 2.698,1.086 3.434,1.81 3.801,2.851 3.801,4.209 3.801,5.565 3.434,6.602 2.698,7.313 1.962,8.026 1.063,8.383 0,8.383 c -1.041,0 -1.935,-0.362 -2.681,-1.087 -0.747,-0.724 -1.12,-1.753 -1.12,-3.087 0,-1.336 0.373,-2.37 1.12,-3.105 C -1.935,0.367 -1.041,0 0,0 m 0,13.134 c 2.557,0 4.688,-0.837 6.397,-2.511 C 8.105,8.948 8.959,6.811 8.959,4.209 8.959,1.606 8.105,-0.537 6.397,-2.223 4.688,-3.908 2.557,-4.751 0,-4.751 c -2.534,0 -4.661,0.849 -6.38,2.546 -1.72,1.696 -2.579,3.835 -2.579,6.414 0,2.579 0.859,4.711 2.579,6.396 1.719,1.686 3.846,2.529 6.38,2.529" /></g><path
           id="path4608"
           style="fill:#000000;fill-opacity:1;fill-rule:nonzero;stroke:none"
           d="m 771.299,63.854 h -5.158 v 24.57 h 5.158 z" /><g
           transform="translate(790.0996,80.721)"
           id="g4610"><path
             id="path4612"
             style="fill:#000000;fill-opacity:1;fill-rule:nonzero;stroke:none"
             d="m 0,0 -6.584,-7.094 6.72,-9.773 h -6.313 l -3.97,5.939 -1.664,-1.799 v -4.14 h -5.157 v 24.57 h 5.157 V -5.667 L -6.686,0 Z" /></g><g
           transform="translate(793.4922,74.3069)"
           id="g4614"><path
             id="path4616"
             style="fill:#000000;fill-opacity:1;fill-rule:nonzero;stroke:none"
             d="M 0,0 H 6.754 C 6.708,0.769 6.409,1.437 5.854,2.002 5.3,2.567 4.468,2.851 3.36,2.851 2.364,2.851 1.572,2.557 0.984,1.969 0.396,1.38 0.067,0.724 0,0 M 7.127,-4.379 11.438,-5.6 c -0.431,-1.561 -1.325,-2.845 -2.682,-3.852 -1.358,-1.006 -3.055,-1.51 -5.091,-1.51 -2.443,0 -4.519,0.815 -6.227,2.443 -1.709,1.629 -2.562,3.813 -2.562,6.55 0,2.625 0.831,4.763 2.494,6.414 1.663,1.653 3.637,2.478 5.922,2.478 2.625,0 4.689,-0.764 6.194,-2.291 1.504,-1.527 2.257,-3.648 2.257,-6.362 0,-0.861 -0.034,-1.392 -0.102,-1.596 H -0.102 c 0.045,-0.928 0.442,-1.703 1.188,-2.325 0.746,-0.621 1.629,-0.933 2.647,-0.933 1.742,0 2.873,0.735 3.394,2.205" /></g><g
           transform="translate(817.249,80.721)"
           id="g4618"><path
             id="path4620"
             style="fill:#000000;fill-opacity:1;fill-rule:nonzero;stroke:none"
             d="m 0,0 v -5.091 c -0.476,0.113 -1.019,0.17 -1.629,0.17 -1.154,0 -2.1,-0.374 -2.834,-1.12 -0.735,-0.746 -1.102,-1.9 -1.102,-3.462 v -7.364 h -5.159 V 0 h 4.989 v -2.274 c 0.407,0.86 1.029,1.482 1.866,1.867 0.837,0.385 1.674,0.577 2.511,0.577 C -0.837,0.17 -0.385,0.112 0,0" /></g><g
           transform="translate(841.0723,72.4749)"
           id="g4622"><path
             id="path4624"
             style="fill:#000000;fill-opacity:1;fill-rule:nonzero;stroke:none"
             d="M 0,0 3.902,15.44 H 9.4 L 2.851,-8.621 H -2.682 L -7.806,7.33 -12.965,-8.621 h -5.634 l -6.548,24.061 h 5.701 l 3.97,-15.407 4.99,15.407 h 5.498 z" /></g><g
           transform="translate(853.2559,74.3069)"
           id="g4626"><path
             id="path4628"
             style="fill:#000000;fill-opacity:1;fill-rule:nonzero;stroke:none"
             d="M 0,0 H 6.754 C 6.708,0.769 6.408,1.437 5.854,2.002 5.3,2.567 4.468,2.851 3.36,2.851 2.363,2.851 1.572,2.557 0.984,1.969 0.396,1.38 0.067,0.724 0,0 m 7.127,-4.379 4.31,-1.221 c -0.43,-1.561 -1.324,-2.845 -2.681,-3.852 -1.358,-1.006 -3.055,-1.51 -5.091,-1.51 -2.443,0 -4.519,0.815 -6.227,2.443 -1.709,1.629 -2.562,3.813 -2.562,6.55 0,2.625 0.83,4.763 2.494,6.414 1.663,1.653 3.637,2.478 5.922,2.478 2.624,0 4.688,-0.764 6.194,-2.291 1.504,-1.527 2.256,-3.648 2.256,-6.362 0,-0.861 -0.033,-1.392 -0.101,-1.596 H -0.103 c 0.046,-0.928 0.443,-1.703 1.189,-2.325 0.746,-0.621 1.629,-0.933 2.646,-0.933 1.743,0 2.874,0.735 3.395,2.205" /></g><g
           transform="translate(865.5742,68.6389)"
           id="g4630"><path
             id="path4632"
             style="fill:#000000;fill-opacity:1;fill-rule:nonzero;stroke:none"
             d="m 0,0 4.378,0.781 c 0.045,-0.635 0.288,-1.171 0.729,-1.612 0.442,-0.441 1.08,-0.662 1.917,-0.662 0.634,0 1.121,0.14 1.46,0.424 0.339,0.283 0.509,0.628 0.509,1.036 0,0.678 -0.555,1.141 -1.663,1.39 L 5.396,1.799 C 3.677,2.16 2.409,2.8 1.595,3.716 0.78,4.633 0.374,5.724 0.374,6.991 c 0,1.562 0.615,2.885 1.849,3.971 1.233,1.086 2.777,1.629 4.632,1.629 2.195,0 3.841,-0.527 4.939,-1.578 1.096,-1.052 1.701,-2.2 1.814,-3.445 L 9.333,6.787 C 9.265,7.398 9.032,7.896 8.637,8.281 8.24,8.665 7.67,8.857 6.924,8.857 6.426,8.857 5.995,8.722 5.634,8.451 5.271,8.18 5.091,7.828 5.091,7.398 5.091,6.721 5.532,6.302 6.414,6.143 l 2.24,-0.441 c 1.698,-0.34 2.987,-0.984 3.868,-1.934 0.883,-0.951 1.325,-2.071 1.325,-3.361 0,-1.56 -0.589,-2.901 -1.765,-4.021 -1.177,-1.12 -2.828,-1.68 -4.955,-1.68 -1.245,0 -2.348,0.182 -3.31,0.543 C 2.856,-4.39 2.121,-3.919 1.612,-3.343 1.103,-2.766 0.718,-2.194 0.458,-1.628 0.197,-1.063 0.045,-0.521 0,0" /></g><g
           transform="translate(880.0312,68.6389)"
           id="g4634"><path
             id="path4636"
             style="fill:#000000;fill-opacity:1;fill-rule:nonzero;stroke:none"
             d="m 0,0 4.378,0.781 c 0.045,-0.635 0.288,-1.171 0.729,-1.612 0.442,-0.441 1.08,-0.662 1.917,-0.662 0.634,0 1.121,0.14 1.46,0.424 0.339,0.283 0.509,0.628 0.509,1.036 0,0.678 -0.555,1.141 -1.663,1.39 L 5.396,1.799 C 3.677,2.16 2.409,2.8 1.595,3.716 0.78,4.633 0.374,5.724 0.374,6.991 c 0,1.562 0.615,2.885 1.849,3.971 1.233,1.086 2.777,1.629 4.632,1.629 2.195,0 3.841,-0.527 4.939,-1.578 1.096,-1.052 1.701,-2.2 1.814,-3.445 L 9.333,6.787 C 9.265,7.398 9.032,7.896 8.637,8.281 8.24,8.665 7.67,8.857 6.924,8.857 6.426,8.857 5.995,8.722 5.634,8.451 5.271,8.18 5.091,7.828 5.091,7.398 5.091,6.721 5.532,6.302 6.414,6.143 l 2.24,-0.441 c 1.698,-0.34 2.987,-0.984 3.868,-1.934 0.883,-0.951 1.325,-2.071 1.325,-3.361 0,-1.56 -0.589,-2.901 -1.765,-4.021 -1.177,-1.12 -2.828,-1.68 -4.955,-1.68 -1.245,0 -2.348,0.182 -3.31,0.543 C 2.856,-4.39 2.121,-3.919 1.612,-3.343 1.103,-2.766 0.718,-2.194 0.458,-1.628 0.197,-1.063 0.045,-0.521 0,0" /></g><g
           transform="translate(899.7471,74.3069)"
           id="g4638"><path
             id="path4640"
             style="fill:#000000;fill-opacity:1;fill-rule:nonzero;stroke:none"
             d="M 0,0 H 6.754 C 6.709,0.769 6.409,1.437 5.854,2.002 5.301,2.567 4.469,2.851 3.36,2.851 2.364,2.851 1.572,2.557 0.984,1.969 0.396,1.38 0.068,0.724 0,0 m 7.128,-4.379 4.31,-1.221 c -0.431,-1.561 -1.325,-2.845 -2.681,-3.852 -1.359,-1.006 -3.055,-1.51 -5.091,-1.51 -2.443,0 -4.52,0.815 -6.228,2.443 -1.709,1.629 -2.562,3.813 -2.562,6.55 0,2.625 0.831,4.763 2.495,6.414 1.662,1.653 3.636,2.478 5.922,2.478 2.624,0 4.688,-0.764 6.193,-2.291 1.505,-1.527 2.257,-3.648 2.257,-6.362 0,-0.861 -0.034,-1.392 -0.101,-1.596 H -0.102 c 0.045,-0.928 0.442,-1.703 1.189,-2.325 0.746,-0.621 1.628,-0.933 2.646,-0.933 1.743,0 2.874,0.735 3.395,2.205" /></g><path
           id="path4642"
           style="fill:#000000;fill-opacity:1;fill-rule:nonzero;stroke:none"
           d="m 917.937,63.854 h -5.158 v 24.57 h 5.158 z" /><g
           transform="translate(918.7178,68.6389)"
           id="g4644"><path
             id="path4646"
             style="fill:#000000;fill-opacity:1;fill-rule:nonzero;stroke:none"
             d="m 0,0 4.378,0.781 c 0.045,-0.635 0.288,-1.171 0.729,-1.612 0.443,-0.441 1.08,-0.662 1.918,-0.662 0.633,0 1.121,0.14 1.459,0.424 0.339,0.283 0.509,0.628 0.509,1.036 0,0.678 -0.555,1.141 -1.662,1.39 L 5.396,1.799 C 3.677,2.16 2.409,2.8 1.595,3.716 0.78,4.633 0.374,5.724 0.374,6.991 c 0,1.562 0.615,2.885 1.849,3.971 1.233,1.086 2.777,1.629 4.632,1.629 2.195,0 3.841,-0.527 4.939,-1.578 1.097,-1.052 1.702,-2.2 1.815,-3.445 L 9.333,6.787 C 9.266,7.398 9.032,7.896 8.637,8.281 8.241,8.665 7.67,8.857 6.924,8.857 6.426,8.857 5.995,8.722 5.634,8.451 5.271,8.18 5.091,7.828 5.091,7.398 5.091,6.721 5.532,6.302 6.414,6.143 l 2.24,-0.441 c 1.698,-0.34 2.987,-0.984 3.868,-1.934 0.884,-0.951 1.325,-2.071 1.325,-3.361 0,-1.56 -0.589,-2.901 -1.765,-4.021 -1.177,-1.12 -2.828,-1.68 -4.955,-1.68 -1.245,0 -2.348,0.182 -3.309,0.543 C 2.856,-4.39 2.121,-3.919 1.612,-3.343 1.103,-2.766 0.718,-2.194 0.458,-1.628 0.198,-1.063 0.046,-0.521 0,0" /></g><g
           transform="translate(416.2725,68.9065)"
           id="g4648"><path
             id="path4650"
             style="fill:#000000;fill-opacity:1;fill-rule:nonzero;stroke:none"
             d="m 0,0 h 3.122 c 1.968,0 3.581,0.588 4.836,1.765 1.256,1.176 1.884,2.907 1.884,5.192 0,2.309 -0.628,4.05 -1.884,5.227 C 6.703,13.36 5.09,13.948 3.122,13.948 H 0 Z M 3.326,-5.057 H -5.362 V 19.005 H 3.36 c 3.642,0 6.567,-1.086 8.773,-3.258 2.205,-2.172 3.309,-5.102 3.309,-8.79 0,-3.687 -1.104,-6.612 -3.309,-8.772 C 9.927,-3.977 6.991,-5.057 3.326,-5.057" /></g><path
           id="path4652"
           style="fill:#000000;fill-opacity:1;fill-rule:nonzero;stroke:none"
           d="m 438.433,63.85 h -5.158 v 16.867 h 5.158 z m -4.717,19.887 c -0.589,0.588 -0.883,1.301 -0.883,2.138 0,0.837 0.294,1.549 0.883,2.138 0.588,0.589 1.29,0.883 2.104,0.883 0.837,0 1.555,-0.294 2.155,-0.883 0.6,-0.589 0.9,-1.301 0.9,-2.138 0,-0.837 -0.3,-1.55 -0.9,-2.138 -0.6,-0.588 -1.318,-0.882 -2.155,-0.882 -0.814,0 -1.516,0.294 -2.104,0.882" /><g
           transform="translate(446.001,70.0608)"
           id="g4654"><path
             id="path4656"
             style="fill:#000000;fill-opacity:1;fill-rule:nonzero;stroke:none"
             d="M 0,0 C 0.679,-0.679 1.549,-1.018 2.613,-1.018 3.676,-1.018 4.542,-0.679 5.209,0 5.876,0.679 6.21,1.583 6.21,2.715 6.21,3.823 5.859,4.723 5.159,5.412 4.457,6.103 3.608,6.447 2.613,6.447 1.617,6.447 0.764,6.103 0.051,5.412 -0.662,4.723 -1.018,3.823 -1.018,2.715 -1.018,1.583 -0.679,0.679 0,0 m -6.177,-7.161 4.548,1.29 c 0.181,-0.837 0.594,-1.517 1.238,-2.037 0.645,-0.52 1.443,-0.78 2.393,-0.78 2.783,0 4.174,1.437 4.174,4.31 v 0.78 c -0.837,-1.267 -2.342,-1.9 -4.513,-1.9 -2.24,0 -4.106,0.78 -5.6,2.342 -1.493,1.56 -2.24,3.517 -2.24,5.871 0,2.263 0.741,4.202 2.223,5.82 1.482,1.617 3.354,2.426 5.617,2.426 1.244,0 2.262,-0.215 3.054,-0.645 C 5.509,9.887 6.052,9.4 6.346,8.857 v 1.799 h 4.921 V -4.106 c 0,-2.624 -0.758,-4.791 -2.273,-6.499 -1.517,-1.708 -3.768,-2.563 -6.754,-2.563 -2.308,0 -4.225,0.594 -5.752,1.782 -1.528,1.188 -2.416,2.596 -2.665,4.225" /></g><path
           id="path4658"
           style="fill:#000000;fill-opacity:1;fill-rule:nonzero;stroke:none"
           d="m 464.836,63.85 h -5.159 v 16.867 h 5.159 z m -4.717,19.887 c -0.589,0.588 -0.883,1.301 -0.883,2.138 0,0.837 0.294,1.549 0.883,2.138 0.588,0.589 1.289,0.883 2.104,0.883 0.837,0 1.555,-0.294 2.155,-0.883 0.599,-0.589 0.899,-1.301 0.899,-2.138 0,-0.837 -0.3,-1.55 -0.899,-2.138 -0.6,-0.588 -1.318,-0.882 -2.155,-0.882 -0.815,0 -1.516,0.294 -2.104,0.882" /><g
           transform="translate(473.5913,85.638)"
           id="g4660"><path
             id="path4662"
             style="fill:#000000;fill-opacity:1;fill-rule:nonzero;stroke:none"
             d="M 0,0 V -4.921 H 3.292 V -9.435 H 0 v -6.312 c 0,-1.177 0.623,-1.765 1.866,-1.765 0.408,0 0.861,0.056 1.358,0.169 v -4.275 c -0.634,-0.317 -1.527,-0.475 -2.681,-0.475 -1.742,0 -3.117,0.486 -4.123,1.459 -1.007,0.973 -1.51,2.296 -1.51,3.971 v 7.228 h -2.987 v 4.514 h 0.848 c 0.86,0 1.511,0.254 1.952,0.764 0.441,0.509 0.662,1.17 0.662,1.985 V 0 Z" /></g><g
           transform="translate(484.8237,67.1087)"
           id="g4664"><path
             id="path4666"
             style="fill:#000000;fill-opacity:1;fill-rule:nonzero;stroke:none"
             d="M 0,0 C 0.882,0 1.618,0.259 2.206,0.78 2.794,1.3 3.088,2.16 3.088,3.359 v 0.746 l -3.19,-0.508 c -1.267,-0.203 -1.9,-0.826 -1.9,-1.867 0,-0.475 0.164,-0.882 0.492,-1.222 C -1.183,0.169 -0.679,0 0,0 m -7.093,1.391 c 0,1.425 0.464,2.574 1.391,3.445 0.928,0.87 2.127,1.419 3.598,1.645 l 3.97,0.611 c 0.815,0.113 1.222,0.497 1.222,1.154 0,0.521 -0.22,0.956 -0.662,1.307 C 1.985,9.903 1.38,10.078 0.611,10.078 -0.25,10.078 -0.933,9.835 -1.442,9.35 -1.951,8.862 -2.229,8.28 -2.274,7.602 l -4.479,0.916 c 0.112,1.403 0.808,2.686 2.086,3.851 1.278,1.165 3.049,1.748 5.312,1.748 2.556,0 4.439,-0.61 5.65,-1.832 1.21,-1.222 1.816,-2.783 1.816,-4.683 v -8.248 c 0,-1.063 0.068,-1.934 0.204,-2.613 h -4.65 c -0.114,0.453 -0.169,1.086 -0.169,1.901 -0.974,-1.584 -2.558,-2.376 -4.752,-2.376 -1.787,0 -3.207,0.504 -4.259,1.51 -1.052,1.007 -1.578,2.211 -1.578,3.615" /></g><path
           id="path4668"
           style="fill:#000000;fill-opacity:1;fill-rule:nonzero;stroke:none"
           d="m 500.502,63.85 h -5.158 v 24.57 h 5.158 z" /><g
           transform="translate(514.5527,63.3411)"
           id="g4670"><path
             id="path4672"
             style="fill:#000000;fill-opacity:1;fill-rule:nonzero;stroke:none"
             d="m 0,0 c -3.53,0 -6.494,1.159 -8.892,3.479 -2.398,2.319 -3.597,5.322 -3.597,9.01 0,3.664 1.21,6.68 3.631,9.044 2.421,2.363 5.35,3.546 8.79,3.546 1.719,0 3.274,-0.255 4.666,-0.763 1.391,-0.509 2.516,-1.182 3.377,-2.019 0.86,-0.838 1.549,-1.697 2.07,-2.58 0.52,-0.882 0.882,-1.798 1.086,-2.749 L 6.074,15.373 C 5.961,15.849 5.78,16.317 5.531,16.781 5.282,17.245 4.932,17.72 4.479,18.208 4.026,18.693 3.404,19.089 2.612,19.396 1.82,19.7 0.927,19.854 -0.068,19.854 c -1.811,0 -3.406,-0.64 -4.786,-1.918 -1.379,-1.279 -2.07,-3.094 -2.07,-5.447 0,-2.172 0.679,-3.903 2.036,-5.193 C -3.53,6.007 -1.9,5.361 0,5.361 c 1.854,0 3.292,0.464 4.31,1.393 1.017,0.927 1.685,1.968 2.002,3.122 l 5.125,-1.46 C 11.21,7.488 10.843,6.572 10.333,5.668 9.824,4.763 9.134,3.868 8.264,2.986 7.392,2.104 6.238,1.386 4.802,0.832 3.365,0.277 1.765,0 0,0" /></g><g
           transform="translate(534.5752,68.0921)"
           id="g4674"><path
             id="path4676"
             style="fill:#000000;fill-opacity:1;fill-rule:nonzero;stroke:none"
             d="M 0,0 C 1.062,0 1.962,0.362 2.697,1.086 3.433,1.81 3.801,2.852 3.801,4.208 3.801,5.566 3.433,6.601 2.697,7.314 1.962,8.026 1.062,8.383 0,8.383 -1.041,8.383 -1.935,8.021 -2.682,7.297 -3.428,6.572 -3.801,5.543 -3.801,4.208 c 0,-1.335 0.373,-2.37 1.119,-3.104 C -1.935,0.367 -1.041,0 0,0 m 0,13.134 c 2.556,0 4.688,-0.837 6.396,-2.512 C 8.104,8.947 8.959,6.81 8.959,4.208 8.959,1.606 8.104,-0.538 6.396,-2.223 4.688,-3.909 2.556,-4.751 0,-4.751 c -2.534,0 -4.662,0.849 -6.381,2.546 -1.72,1.696 -2.579,3.834 -2.579,6.413 0,2.579 0.859,4.712 2.579,6.397 1.719,1.685 3.847,2.529 6.381,2.529" /></g><g
           transform="translate(550.084,73.5218)"
           id="g4678"><path
             id="path4680"
             style="fill:#000000;fill-opacity:1;fill-rule:nonzero;stroke:none"
             d="M 0,0 V -9.672 H -5.158 V 7.195 h 4.989 V 5.261 C 0.26,6.007 0.922,6.59 1.815,7.008 2.71,7.427 3.62,7.636 4.548,7.636 6.561,7.636 8.088,7.008 9.13,5.753 10.17,4.497 10.69,2.885 10.69,0.917 V -9.672 H 5.532 V 0.034 C 5.532,0.917 5.3,1.624 4.836,2.155 4.372,2.687 3.688,2.953 2.783,2.953 1.945,2.953 1.273,2.676 0.764,2.121 0.255,1.566 0,0.859 0,0" /></g><g
           transform="translate(561.792,68.636)"
           id="g4682"><path
             id="path4684"
             style="fill:#000000;fill-opacity:1;fill-rule:nonzero;stroke:none"
             d="m 0,0 4.379,0.78 c 0.044,-0.634 0.287,-1.172 0.728,-1.612 0.442,-0.441 1.081,-0.662 1.918,-0.662 0.634,0 1.121,0.14 1.459,0.425 0.34,0.282 0.51,0.628 0.51,1.035 0,0.679 -0.555,1.141 -1.663,1.39 L 5.396,1.798 C 3.677,2.16 2.41,2.799 1.596,3.715 0.781,4.632 0.374,5.723 0.374,6.99 c 0,1.561 0.615,2.885 1.85,3.971 1.232,1.086 2.776,1.629 4.631,1.629 2.195,0 3.84,-0.526 4.939,-1.578 1.097,-1.052 1.702,-2.201 1.815,-3.445 L 9.333,6.787 C 9.266,7.397 9.033,7.896 8.638,8.279 8.241,8.664 7.67,8.857 6.924,8.857 6.426,8.857 5.995,8.721 5.634,8.45 5.271,8.178 5.091,7.827 5.091,7.397 5.091,6.719 5.532,6.3 6.414,6.143 l 2.24,-0.442 c 1.698,-0.34 2.987,-0.985 3.868,-1.934 0.883,-0.952 1.325,-2.071 1.325,-3.36 0,-1.561 -0.589,-2.902 -1.765,-4.022 -1.177,-1.12 -2.828,-1.68 -4.955,-1.68 -1.244,0 -2.347,0.181 -3.309,0.543 C 2.856,-4.39 2.121,-3.921 1.612,-3.344 1.104,-2.767 0.718,-2.195 0.458,-1.63 0.198,-1.064 0.046,-0.521 0,0" /></g><g
           transform="translate(583.2402,85.638)"
           id="g4686"><path
             id="path4688"
             style="fill:#000000;fill-opacity:1;fill-rule:nonzero;stroke:none"
             d="M 0,0 V -4.921 H 3.292 V -9.435 H 0 v -6.312 c 0,-1.177 0.622,-1.765 1.866,-1.765 0.407,0 0.861,0.056 1.358,0.169 v -4.275 c -0.633,-0.317 -1.528,-0.475 -2.681,-0.475 -1.742,0 -3.116,0.486 -4.123,1.459 -1.007,0.973 -1.511,2.296 -1.511,3.971 v 7.228 h -2.986 v 4.514 h 0.848 c 0.86,0 1.51,0.254 1.952,0.764 0.441,0.509 0.662,1.17 0.662,1.985 V 0 Z" /></g><g
           transform="translate(598.7832,80.7171)"
           id="g4690"><path
             id="path4692"
             style="fill:#000000;fill-opacity:1;fill-rule:nonzero;stroke:none"
             d="m 0,0 v -5.091 c -0.476,0.113 -1.018,0.17 -1.63,0.17 -1.153,0 -2.098,-0.373 -2.833,-1.12 -0.735,-0.746 -1.103,-1.9 -1.103,-3.462 v -7.364 h -5.159 V 0 h 4.99 v -2.274 c 0.407,0.86 1.029,1.482 1.866,1.866 0.837,0.385 1.675,0.578 2.512,0.578 C -0.838,0.17 -0.385,0.113 0,0" /></g><g
           transform="translate(610.7285,63.8499)"
           id="g4694"><path
             id="path4696"
             style="fill:#000000;fill-opacity:1;fill-rule:nonzero;stroke:none"
             d="M 0,0 C -0.091,0.407 -0.136,0.973 -0.136,1.697 -0.542,1.018 -1.165,0.504 -2.002,0.152 c -0.838,-0.35 -1.719,-0.525 -2.647,-0.525 -1.992,0 -3.558,0.628 -4.701,1.884 -1.141,1.255 -1.713,2.821 -1.713,4.7 v 10.656 h 5.158 v -9.57 c 0,-0.86 0.232,-1.562 0.696,-2.104 0.464,-0.544 1.138,-0.815 2.019,-0.815 0.86,0 1.544,0.266 2.054,0.798 0.508,0.531 0.763,1.226 0.763,2.087 v 9.604 H 4.786 V 3.021 C 4.786,1.912 4.842,0.904 4.955,0 Z" /></g><g
           transform="translate(625.8652,76.4749)"
           id="g4698"><path
             id="path4700"
             style="fill:#000000;fill-opacity:1;fill-rule:nonzero;stroke:none"
             d="m 0,0 c -1.109,0 -2.031,-0.374 -2.767,-1.12 -0.735,-0.747 -1.102,-1.776 -1.102,-3.089 0,-1.289 0.379,-2.308 1.137,-3.054 0.757,-0.747 1.69,-1.12 2.799,-1.12 0.928,0 1.691,0.242 2.291,0.731 0.599,0.485 1.001,1.079 1.205,1.78 L 8.11,-7.263 c -0.407,-1.606 -1.318,-2.986 -2.732,-4.14 -1.413,-1.154 -3.184,-1.731 -5.311,-1.731 -2.534,0 -4.677,0.842 -6.43,2.529 -1.754,1.684 -2.631,3.818 -2.631,6.396 0,2.603 0.854,4.746 2.562,6.432 1.708,1.684 3.818,2.528 6.329,2.528 2.195,0 3.994,-0.566 5.397,-1.697 C 6.696,1.923 7.602,0.53 8.009,-1.12 L 3.394,-2.512 C 3.189,-1.787 2.805,-1.188 2.239,-0.713 1.674,-0.237 0.927,0 0,0" /></g><g
           transform="translate(641.374,85.638)"
           id="g4702"><path
             id="path4704"
             style="fill:#000000;fill-opacity:1;fill-rule:nonzero;stroke:none"
             d="M 0,0 V -4.921 H 3.291 V -9.435 H 0 v -6.312 c 0,-1.177 0.621,-1.765 1.866,-1.765 0.407,0 0.86,0.056 1.357,0.169 v -4.275 c -0.633,-0.317 -1.527,-0.475 -2.681,-0.475 -1.741,0 -3.116,0.486 -4.123,1.459 -1.007,0.973 -1.51,2.296 -1.51,3.971 v 7.228 h -2.986 v 4.514 h 0.848 c 0.859,0 1.51,0.254 1.952,0.764 0.44,0.509 0.661,1.17 0.661,1.985 V 0 Z" /></g><path
           id="path4706"
           style="fill:#000000;fill-opacity:1;fill-rule:nonzero;stroke:none"
           d="m 651.555,63.85 h -5.159 v 16.867 h 5.159 z m -4.718,19.887 c -0.589,0.588 -0.883,1.301 -0.883,2.138 0,0.837 0.294,1.549 0.883,2.138 0.588,0.589 1.29,0.883 2.104,0.883 0.836,0 1.555,-0.294 2.156,-0.883 0.598,-0.589 0.898,-1.301 0.898,-2.138 0,-0.837 -0.3,-1.55 -0.898,-2.138 -0.601,-0.588 -1.32,-0.882 -2.156,-0.882 -0.814,0 -1.516,0.294 -2.104,0.882" /><g
           transform="translate(661.8711,68.0921)"
           id="g4708"><path
             id="path4710"
             style="fill:#000000;fill-opacity:1;fill-rule:nonzero;stroke:none"
             d="M 0,0 C 1.062,0 1.962,0.362 2.697,1.086 3.433,1.81 3.801,2.852 3.801,4.208 3.801,5.566 3.433,6.601 2.697,7.314 1.962,8.026 1.062,8.383 0,8.383 -1.042,8.383 -1.935,8.021 -2.682,7.297 -3.428,6.572 -3.801,5.543 -3.801,4.208 c 0,-1.335 0.373,-2.37 1.119,-3.104 C -1.935,0.367 -1.042,0 0,0 m 0,13.134 c 2.556,0 4.688,-0.837 6.397,-2.512 C 8.104,8.947 8.959,6.81 8.959,4.208 8.959,1.606 8.104,-0.538 6.397,-2.223 4.688,-3.909 2.556,-4.751 0,-4.751 c -2.535,0 -4.662,0.849 -6.381,2.546 -1.719,1.696 -2.579,3.834 -2.579,6.413 0,2.579 0.86,4.712 2.579,6.397 1.719,1.685 3.846,2.529 6.381,2.529" /></g><g
           transform="translate(677.3799,73.5218)"
           id="g4712"><path
             id="path4714"
             style="fill:#000000;fill-opacity:1;fill-rule:nonzero;stroke:none"
             d="M 0,0 V -9.672 H -5.158 V 7.195 H -0.17 V 5.261 C 0.26,6.007 0.922,6.59 1.815,7.008 2.709,7.427 3.62,7.636 4.548,7.636 6.561,7.636 8.088,7.008 9.129,5.753 10.17,4.497 10.69,2.885 10.69,0.917 V -9.672 H 5.531 V 0.034 C 5.531,0.917 5.3,1.624 4.836,2.155 4.372,2.687 3.688,2.953 2.782,2.953 1.945,2.953 1.272,2.676 0.764,2.121 0.254,1.566 0,0.859 0,0" /></g></g></g></g></svg>